<svg width="187" height="50" viewBox="0 0 187 50" fill="none" xmlns="http://www.w3.org/2000/svg">
<g clip-path="url(#clip0_19_23)">
<g filter="url(#filter0_d_19_23)">
<path d="M57.113 13.104C56.4297 13.514 55.8147 14.2383 55.268 15.277C54.7487 16.2883 54.3113 17.4637 53.956 18.803C53.6007 20.1423 53.3273 21.5773 53.136 23.108C52.972 24.6113 52.89 26.06 52.89 27.454C52.89 28.356 52.9447 29.3673 53.054 30.488C53.1633 31.6087 53.382 32.661 53.71 33.645C54.0653 34.629 54.5573 35.4627 55.186 36.146C55.8147 36.802 56.6483 37.13 57.687 37.13C58.8077 37.13 59.7507 36.7473 60.516 35.982C61.2813 35.1893 61.8963 34.1643 62.361 32.907C62.853 31.6223 63.2083 30.1737 63.427 28.561C63.6457 26.9483 63.755 25.3083 63.755 23.641C63.755 20.9897 63.509 18.8303 63.017 17.163C62.5523 15.4683 61.9237 14.1427 61.131 13.186C60.3383 12.2293 59.409 11.587 58.343 11.259C57.3043 10.9037 56.1973 10.726 55.022 10.726C53.6553 10.726 52.3707 10.9173 51.168 11.3C49.9927 11.6827 48.954 12.2567 48.052 13.022C47.1773 13.7873 46.4803 14.744 45.961 15.892C45.469 17.04 45.223 18.3793 45.223 19.91C45.223 20.7027 45.2777 21.345 45.387 21.837C45.4963 22.329 45.6193 22.7253 45.756 23.026C45.8927 23.2993 46.0293 23.5043 46.166 23.641C46.33 23.7777 46.4393 23.8597 46.494 23.887C45.018 23.887 43.8563 23.518 43.009 22.78C42.1617 22.0147 41.738 20.8667 41.738 19.336C41.738 17.942 42.0933 16.63 42.804 15.4C43.542 14.17 44.5397 13.104 45.797 12.202C47.0543 11.3 48.5303 10.5893 50.225 10.07C51.9197 9.52333 53.7373 9.25 55.678 9.25C58.1927 9.25 60.2837 9.68733 61.951 10.562C63.6183 11.4367 64.9577 12.5983 65.969 14.047C66.9803 15.4683 67.691 17.1083 68.101 18.967C68.511 20.7983 68.716 22.698 68.716 24.666C68.716 26.47 68.5383 28.3013 68.183 30.16C67.855 31.9913 67.2673 33.6587 66.42 35.162C65.5727 36.6653 64.452 37.8953 63.058 38.852C61.664 39.7813 59.9147 40.246 57.81 40.246C56.4433 40.246 55.1587 40.0137 53.956 39.549C52.7533 39.0843 51.701 38.319 50.799 37.253C49.897 36.187 49.1727 34.793 48.626 33.071C48.1067 31.349 47.847 29.2307 47.847 26.716C47.847 25.158 47.97 23.559 48.216 21.919C48.462 20.279 48.8583 18.7893 49.405 17.45C49.9517 16.0833 50.676 14.9627 51.578 14.088C52.5073 13.2133 53.6553 12.776 55.022 12.776C55.3227 12.776 55.6507 12.8033 56.006 12.858C56.3613 12.8853 56.7303 12.9673 57.113 13.104ZM75.8151 11.3V33.44C75.8151 33.7133 75.8288 34.055 75.8561 34.465C75.8834 34.875 75.9518 35.285 76.0611 35.695C76.1978 36.0777 76.3891 36.4193 76.6351 36.72C76.8811 36.9933 77.2228 37.13 77.6601 37.13C78.9994 37.13 79.9834 35.6403 80.6121 32.661H82.1291C81.8284 34.383 81.4458 35.7497 80.9811 36.761C80.5164 37.745 80.0244 38.4967 79.5051 39.016C78.9858 39.5353 78.4528 39.8633 77.9061 40C77.3594 40.164 76.8674 40.246 76.4301 40.246C75.4734 40.246 74.6944 40.0683 74.0931 39.713C73.4918 39.3303 73.0134 38.852 72.6581 38.278C72.3028 37.704 72.0568 37.0617 71.9201 36.351C71.7834 35.6403 71.7151 34.957 71.7151 34.301V11.874L75.8151 11.3ZM79.8257 13.596C79.8257 12.858 80.0854 12.2157 80.6047 11.669C81.1241 11.1223 81.7664 10.849 82.5317 10.849C83.2697 10.849 83.9121 11.1223 84.4587 11.669C85.0054 12.2157 85.2787 12.858 85.2787 13.596C85.2787 14.3613 85.0054 15.0037 84.4587 15.523C83.9121 16.0423 83.2697 16.302 82.5317 16.302C81.7664 16.302 81.1241 16.0423 80.6047 15.523C80.0854 15.0037 79.8257 14.3613 79.8257 13.596ZM84.6637 19.5V33.44C84.6637 33.768 84.6637 34.1507 84.6637 34.588C84.6911 34.998 84.7594 35.3943 84.8687 35.777C85.0054 36.1597 85.1831 36.4877 85.4017 36.761C85.6477 37.007 86.0031 37.13 86.4677 37.13C86.6864 37.13 86.9461 37.1027 87.2467 37.048C87.5747 36.9933 87.8207 36.9387 87.9847 36.884C88.0121 37.0207 88.0257 37.1437 88.0257 37.253C88.0531 37.3623 88.0667 37.4853 88.0667 37.622C88.0667 38.0867 87.9574 38.4967 87.7387 38.852C87.5474 39.18 87.2877 39.4533 86.9597 39.672C86.6317 39.8633 86.2627 40 85.8527 40.082C85.4427 40.1913 85.0327 40.246 84.6227 40.246C83.8027 40.246 83.1331 40.082 82.6137 39.754C82.0944 39.3987 81.6707 38.9477 81.3427 38.401C81.0421 37.827 80.8371 37.1983 80.7277 36.515C80.6184 35.8317 80.5637 35.1483 80.5637 34.465V19.5H84.6637Z" fill="#F5F5F5"/>
<path d="M93.046 40.246C91.488 40.246 90.1896 39.713 89.151 38.647C88.1123 37.581 87.593 35.9137 87.593 33.645C87.593 31.6223 87.9893 29.504 88.782 27.29C89.602 25.0487 90.8046 23.1627 92.39 21.632C94.0026 20.074 95.916 19.295 98.13 19.295C99.2506 19.295 100.084 19.4863 100.631 19.869C101.178 20.2517 101.451 20.7573 101.451 21.386V21.55L103.46 12.12L109.528 11.3L104.813 33.44C104.704 33.85 104.649 34.2873 104.649 34.752C104.649 35.2987 104.772 35.695 105.018 35.941C105.291 36.1597 105.729 36.269 106.33 36.269C107.095 36.269 107.751 35.941 108.298 35.285C108.872 34.629 109.323 33.7543 109.651 32.661H111.373C109.706 37.5537 106.959 40 103.132 40C102.011 40 101.096 39.6993 100.385 39.098C99.7016 38.4967 99.278 37.622 99.114 36.474C98.4033 37.5673 97.5423 38.4693 96.531 39.18C95.547 39.8907 94.3853 40.246 93.046 40.246ZM95.711 36.269C96.367 36.269 97.023 35.9683 97.679 35.367C98.3623 34.7657 98.827 33.932 99.073 32.866V32.661L101.082 23.272C100.836 22.3153 100.276 21.837 99.401 21.837C98.3076 21.837 97.3236 22.4793 96.449 23.764C95.5743 25.0213 94.891 26.552 94.399 28.356C93.907 30.1327 93.661 31.7043 93.661 33.071C93.661 34.4377 93.8523 35.3123 94.235 35.695C94.645 36.0777 95.137 36.269 95.711 36.269ZM115.53 40.246C113.507 40.246 111.936 39.7267 110.815 38.688C109.694 37.622 109.134 35.9683 109.134 33.727C109.134 31.841 109.503 29.7637 110.241 27.495C110.979 25.2263 112.182 23.272 113.849 21.632C115.516 19.9647 117.635 19.131 120.204 19.131C123.211 19.131 124.714 20.443 124.714 23.067C124.714 24.5977 124.277 26.0053 123.402 27.29C122.527 28.5747 121.366 29.6133 119.917 30.406C118.468 31.1713 116.924 31.6087 115.284 31.718C115.229 32.538 115.202 33.0847 115.202 33.358C115.202 34.6973 115.434 35.613 115.899 36.105C116.364 36.5697 117.115 36.802 118.154 36.802C119.63 36.802 120.887 36.4603 121.926 35.777C122.992 35.0937 124.154 34.055 125.411 32.661H126.805C123.771 37.7177 120.013 40.246 115.53 40.246ZM115.612 29.75C116.623 29.6953 117.58 29.34 118.482 28.684C119.411 28.028 120.149 27.1943 120.696 26.183C121.27 25.1717 121.557 24.1057 121.557 22.985C121.557 21.8643 121.215 21.304 120.532 21.304C119.548 21.304 118.578 22.165 117.621 23.887C116.692 25.609 116.022 27.5633 115.612 29.75ZM130.076 40.246C128.491 40.246 127.247 39.8497 126.345 39.057C125.471 38.237 125.033 37.0207 125.033 35.408C125.033 34.752 125.102 34.096 125.238 33.44L128.19 19.5H134.094L131.142 33.44C131.006 34.1233 130.937 34.6153 130.937 34.916C130.937 35.818 131.402 36.269 132.331 36.269C133.589 36.269 134.75 35.4763 135.816 33.891C136.91 32.3057 137.784 30.4197 138.44 28.233C139.096 26.0463 139.424 24.1603 139.424 22.575C139.37 22.7117 139.192 22.821 138.891 22.903C138.591 22.9577 138.331 22.985 138.112 22.985C137.648 22.985 137.279 22.7663 137.005 22.329C136.759 21.8917 136.636 21.4133 136.636 20.894C136.636 20.238 136.841 19.705 137.251 19.295C137.689 18.885 138.331 18.68 139.178 18.68C140.08 18.68 140.736 19.0217 141.146 19.705C141.556 20.361 141.761 21.2083 141.761 22.247C141.761 24.707 141.338 27.3447 140.49 30.16C139.643 32.948 138.345 35.326 136.595 37.294C134.846 39.262 132.673 40.246 130.076 40.246Z" fill="#3281B4"/>
</g>
</g>
<defs>
<filter id="filter0_d_19_23" x="37.738" y="9.25" width="108.023" height="38.996" filterUnits="userSpaceOnUse" color-interpolation-filters="sRGB">
<feFlood flood-opacity="0" result="BackgroundImageFix"/>
<feColorMatrix in="SourceAlpha" type="matrix" values="0 0 0 0 0 0 0 0 0 0 0 0 0 0 0 0 0 0 127 0" result="hardAlpha"/>
<feOffset dy="4"/>
<feGaussianBlur stdDeviation="2"/>
<feComposite in2="hardAlpha" operator="out"/>
<feColorMatrix type="matrix" values="0 0 0 0 0 0 0 0 0 0 0 0 0 0 0 0 0 0 0.25 0"/>
<feBlend mode="normal" in2="BackgroundImageFix" result="effect1_dropShadow_19_23"/>
<feBlend mode="normal" in="SourceGraphic" in2="effect1_dropShadow_19_23" result="shape"/>
</filter>
<clipPath id="clip0_19_23">
<rect width="187" height="50" fill="white"/>
</clipPath>
</defs>
</svg>
